<?xml version="1.0" encoding="utf-8"?>
<!-- Generator: Adobe Illustrator 16.0.0, SVG Export Plug-In . SVG Version: 6.00 Build 0)  -->
<!DOCTYPE svg PUBLIC "-//W3C//DTD SVG 1.1//EN" "http://www.w3.org/Graphics/SVG/1.1/DTD/svg11.dtd">
<svg version="1.1" id="Layer_1" xmlns="http://www.w3.org/2000/svg" xmlns:xlink="http://www.w3.org/1999/xlink" x="0px" y="0px"
	 width="1000px" height="571.415px" viewBox="0 0 1000 571.415" enable-background="new 0 0 1000 571.415" xml:space="preserve">
<g>
	<path d="M287.368,143.493c0,39.814-14.029,73.744-42.073,101.773c-28.043,28.102-61.861,42.104-101.417,42.104
		c-39.591,0-73.441-14.003-101.655-42.104C14.083,217.237,0,183.308,0,143.493c0-39.57,14.083-73.37,42.224-101.428
		C70.438,14.036,104.287,0,143.878,0c39.555,0,73.373,14.036,101.417,42.065C273.339,70.123,287.368,103.923,287.368,143.493
		 M278.723,143.694c-11.295-24.841-28.7-45.037-52.269-60.631c-24.87-16.82-52.422-25.231-82.778-25.231
		c-30.323,0-58.06,8.411-83.167,25.231c-23.298,15.594-40.587,35.79-51.864,60.631c11.277,24.827,28.566,45.124,51.864,60.992
		c25.108,16.547,52.845,24.813,83.167,24.813c30.356,0,57.909-8.266,82.778-24.813C250.023,188.818,267.428,168.521,278.723,143.694
		 M220.122,143.493c0,21.003-7.429,39.007-22.371,53.895c-14.873,14.931-32.887,22.36-53.873,22.36
		c-21.019,0-39.032-7.43-53.909-22.36c-14.941-14.888-22.37-32.892-22.37-53.895c0-21.033,7.429-38.921,22.37-53.722
		c14.877-14.786,32.891-22.144,53.909-22.144c20.986,0,39,7.357,53.873,22.144C212.693,104.572,220.122,122.46,220.122,143.493"/>
	<path d="M312.944,143.666c0-74.177,61.234-135.4,140.972-135.4c72.327,0,109.437,52.005,109.437,52.005l-37.11,37.031
		c0,0-25.966-37.031-72.327-37.031s-83.467,37.031-83.467,83.396c0,46.393,37.106,83.438,83.467,83.438
		c48.236,0,74.202-37.046,74.202-37.046l37.111,37.046c0,0-37.111,51.961-111.313,51.961
		C374.179,279.065,312.944,217.886,312.944,143.666"/>
	<path d="M585.979,13.878h109.436c51.932,0,83.438,31.491,83.438,68.565c0,40.867-35.206,53.822-35.206,53.822
		s48.203,13.012,48.203,63.055c0,40.854-33.396,74.206-89.022,74.206H585.979V13.878z M691.714,113.992
		c18.501,0,29.667-11.107,29.667-25.966c0-14.801-11.166-25.967-29.667-25.967h-50.093v51.933H691.714z M699.106,225.286
		c22.274,0,35.243-13.012,35.243-31.505c0-18.537-12.969-31.55-35.243-31.55h-57.485v63.055H699.106z"/>
	<path d="M798.529,238.284l37.096-37.117c0,0,22.237,27.856,61.201,27.856c29.658,0,42.664-13.026,42.664-29.703
		c0-44.475-129.867-24.12-129.867-115.017c0-40.753,35.271-76.038,94.597-76.038c57.537,0,87.202,35.285,87.202,35.285
		l-37.095,37.046c0,0-18.536-22.26-48.232-22.26c-27.834,0-38.928,11.181-38.928,25.967c0,44.547,129.831,24.105,129.831,115.017
		c0,42.671-37.096,79.745-98.296,79.745C831.896,279.065,798.529,238.284,798.529,238.284"/>
	<polygon points="8.576,323.234 55.427,323.234 173.473,474.229 173.473,323.234 225.542,323.234 225.542,566.207 178.691,566.207 
		60.646,415.212 60.646,566.207 8.576,566.207 	"/>
	<polygon points="260.947,323.234 441.475,323.234 441.475,371.791 313.013,371.791 313.013,418.689 413.668,418.689 
		413.668,465.516 313.013,465.516 313.013,517.621 444.918,517.621 444.918,566.207 260.947,566.207 	"/>
	<polygon points="457.076,323.234 510.88,323.234 561.227,486.39 562.949,486.39 613.288,323.234 661.881,323.234 712.213,486.39 
		713.98,486.39 764.296,323.234 818.084,323.234 738.258,566.207 687.913,566.207 638.634,408.259 636.527,408.259 587.265,566.207 
		536.918,566.207 	"/>
	<path d="M814.282,533.215l34.716-34.707c0,0,20.816,26.037,57.262,26.037c27.793,0,39.932-12.16,39.932-27.755
		c0-41.632-121.508-22.562-121.508-107.645c0-38.156,32.99-71.12,88.516-71.12c53.809,0,81.62,32.964,81.62,32.964l-34.736,34.709
		c0,0-17.384-20.802-45.108-20.802c-26.032,0-36.447,10.4-36.447,24.249c0,41.661,121.473,22.591,121.473,107.645
		c0,39.916-34.73,74.625-91.979,74.625C845.535,571.415,814.282,533.215,814.282,533.215"/>
</g>
</svg>
